<svg width="22" height="22" viewBox="0 0 22 22" fill="none" xmlns="http://www.w3.org/2000/svg">
<path fill-rule="evenodd" clip-rule="evenodd" d="M11 3.6665C6.41669 3.6665 2.50252 6.51734 0.916687 10.5415C2.50252 14.5657 6.41669 17.4165 11 17.4165C15.5834 17.4165 19.4975 14.5657 21.0834 10.5415C19.4975 6.51734 15.5834 3.6665 11 3.6665ZM11 15.1248C8.47002 15.1248 6.41669 13.0715 6.41669 10.5415C6.41669 8.0115 8.47002 5.95817 11 5.95817C13.53 5.95817 15.5834 8.0115 15.5834 10.5415C15.5834 13.0715 13.53 15.1248 11 15.1248ZM11 7.7915C9.47835 7.7915 8.25002 9.01984 8.25002 10.5415C8.25002 12.0632 9.47835 13.2915 11 13.2915C12.5217 13.2915 13.75 12.0632 13.75 10.5415C13.75 9.01984 12.5217 7.7915 11 7.7915Z" fill="#A9ACB0"/>
</svg>
